<?xml version="1.0" encoding="UTF-8"?>
<svg id="Layer_3" data-name="Layer 3" xmlns="http://www.w3.org/2000/svg" xmlns:xlink="http://www.w3.org/1999/xlink" viewBox="0 0 123 119">
  <defs>
    <style>
      .cls-1 {
        fill: #ed1e79;
      }

      .cls-2 {
        fill: url(#linear-gradient);
        opacity: .51;
      }

      .cls-3 {
        fill: #d4145a;
        stroke-width: 7px;
      }

      .cls-3, .cls-4 {
        stroke: #000;
      }

      .cls-3, .cls-4, .cls-5 {
        stroke-miterlimit: 10;
      }

      .cls-4 {
        stroke-width: 19px;
      }

      .cls-4, .cls-5 {
        fill: none;
      }

      .cls-5 {
        stroke: #d4145a;
        stroke-width: 6px;
      }
    </style>
    <linearGradient id="linear-gradient" x1="42.87" y1="59.57" x2="6.4" y2="59.57" gradientUnits="userSpaceOnUse">
      <stop offset="0" stop-color="#000" stop-opacity="0"/>
      <stop offset="1" stop-color="#000"/>
    </linearGradient>
  </defs>
  <rect class="cls-4" x="78.68" y="27.99" width="34.82" height="59.11" rx="8.41" ry="8.41"/>
  <rect class="cls-3" x="3.5" y="3.83" width="85.86" height="111.34" rx="9.89" ry="9.89"/>
  <rect class="cls-2" x="6.4" y="3.57" width="36.47" height="112"/>
  <rect class="cls-5" x="78.68" y="27.99" width="34.82" height="59.11" rx="8.41" ry="8.41"/>
  <path class="cls-1" d="M34.02,23.64c-1.44-5.13-7.5-8.98-12.7-6.85-1.51.62-2.73,1.3-3.59,2.77-.68,1.16-1,2.82-.72,4.2-1.45,2.38-1.73,5.44-.13,7.93,1.74,2.69,4.76,4.31,7.97,4.14,5.85-.31,10.81-6.28,9.16-12.19ZM21.01,28.37s.08.03.13.05c.3.79.73,1.52,1.28,2.14-.6-.42-1.09-1.09-1.41-2.18Z"/>
  <path class="cls-1" d="M29.03,58.21c.4-.2.76-.45,1.09-.75.68-.69,1.32-1.29,1.84-2.15.97-1.63,1.34-3.53,1.08-5.42-.56-4.05-3.74-6.74-7.54-7.66-5.91-1.43-9.15,5.48-6.59,9.37-.31.59-.58,1.2-.76,1.79-1.08,3.55-.74,8.06-.82,11.7-.17,8.11.27,16.2,1.21,24.25.88,7.62,12.9,7.71,12,0-.6-5.15-1.02-10.32-1.17-15.5-.08-2.59-.1-5.18-.06-7.78.02-1.3.06-2.59.1-3.89.02-.61-.12-4.71-.34-3.79-.69.18-.71.12-.05-.18Z"/>
</svg>