<?xml version="1.0" encoding="UTF-8"?>
<svg id="Layer_5" data-name="Layer 5" xmlns="http://www.w3.org/2000/svg" viewBox="0 0 245 97">
  <defs>
    <style>
      .cls-1 {
        fill: #f3a4ae;
      }
    </style>
  </defs>
  <path class="cls-1" d="M236.72,9.18c-9.58-3.66-19.57,5.38-28.03,10-1.25.6-2.52,1.11-3.8,1.5-1.15.49-2.31.95-3.48,1.37-3.52,1.26-7.19,2.14-11.08,2.36-1.37.31-2.73.63-4.06.95-1.34.32-2.65.63-3.94.95-7.39,1.82-14.76,3.18-22.41,2.56-6.76-.55-13.33-2.35-20.09-2.51-.38-.3-.77-.58-1.18-.82-5.97-3.51-12.69-1.03-16.41,4.32-3.13,4.52-9.24,7.16-13.97,9.56-6.11,3.1-12.45,5.56-19.01,7.53-5,1.5-10.03,2.66-15.1,3.5-1.69.28-3.38.52-5.08.73-4.74.47-10.31.25-15.89.1-1.86-.05-3.72-.09-5.56-.1-1.42.19-2.85.33-4.28.44-1.43.1-2.87.17-4.31.17-9.74.94-28.73-7.09-28.73,3.96-1,7.03,9.99,11.05,17.27,14.92,1.58.84,3.24,1.58,4.93,2.24,5.08,1.99,10.5,3.31,15.13,4.74,1.61.43,3.21.86,4.82,1.29,9.64,2.58,19.28,5.08,29,6.8,1.62.4,3.24.79,4.86,1.16,4.87,1.12,9.76,2.08,14.71,2.78,1.73.35,3.47.66,5.21.92,5.23.8,10.52,1.24,15.88,1.22,1.88.04,3.76.06,5.65.05,20.73-.08,41.58-3.17,61.26-9.44,5.86-1.87,11.49-4.32,15.75-8.93,4.26-4.61,6.68-10.37,9.69-15.79.74-1.34,1.5-2.66,2.29-3.96s1.59-2.59,2.42-3.85c.62-1.53,1.4-2.96,2.27-4.34.84-1.11,1.74-2.23,2.68-3.36,6-8.57,15-17.61,14.85-29.39-.46-1.36-1.21-2.61-2.27-3.65Z"/>
  <path d="M128.84,26.8c38.74,14.59,78.64-2.47,113.88-18.51,5.26-2.4.7-10.15-4.54-7.77-33.13,15.08-70.53,31.32-106.94,17.6-5.43-2.04-7.77,6.65-2.39,8.68h0Z"/>
  <path d="M236.05,3.71c-7.25,28.28-19.52,55.9-42.16,75.18-4.42,3.76,1.98,10.1,6.36,6.36,23.73-20.21,36.88-49.5,44.48-79.15,1.44-5.61-7.24-8.01-8.68-2.39h0Z"/>
  <path d="M126.78,19.52C94.29,48.85,46.32,57.37,5.64,41.47c-3.26-1.27-6.43,2.49-5.54,5.54,4.03,13.71,17.32,22.39,29.54,28.34,10.07,4.91,20.82,8.46,31.61,11.39,28.58,7.77,58.93,11.61,88.54,9.74,16.63-1.05,33.28-3.96,48.73-10.35,5.28-2.18,2.96-10.89-2.39-8.68-26.04,10.77-55.2,11.87-82.95,9.44-24.67-2.16-49.96-7.15-72.94-16.59-11.86-4.87-27.61-12.54-31.47-25.68l-5.54,5.54c43.69,17.07,95.19,7.07,129.89-24.26,4.31-3.89-2.07-10.24-6.36-6.36h0Z"/>
  <path d="M46.86,67.4c29.21,1.44,58.18-7.56,81.42-25.31,1.51-1.16.02-3.76-1.51-2.59-22.87,17.46-51.16,26.32-79.91,24.9-1.93-.1-1.92,2.9,0,3h0Z"/>
  <path d="M68.5,73.81c18.16-1.78,35.67-6.63,52.15-14.47,1.74-.83.22-3.42-1.51-2.59-15.97,7.59-33.03,12.33-50.63,14.06-1.9.19-1.92,3.19,0,3h0Z"/>
  <path d="M86.63,78.01c12.99.86,24.58-4.77,35.82-10.59,1.72-.89.2-3.48-1.51-2.59-10.81,5.59-21.81,11-34.31,10.18-1.93-.13-1.92,2.87,0,3h0Z"/>
  <path d="M108.27,82.37c7.25-.94,15.25-5.39,21.34-9.27,1.62-1.03.12-3.63-1.51-2.59-5.61,3.57-13.18,8-19.82,8.86-1.89.24-1.91,3.25,0,3h0Z"/>
  <path d="M125.54,83.43c5.17-1.44,9.9-5.09,14.24-8.14,4.7-3.3,9.17-6.91,13.45-10.75,1.44-1.29-.69-3.41-2.12-2.12-4.09,3.67-8.34,7.12-12.84,10.28-4.08,2.86-8.68,6.49-13.53,7.84-1.86.52-1.07,3.41.8,2.89h0Z"/>
  <path d="M140.21,83.31c10.5-5.72,19.74-13.18,27.52-22.26,1.25-1.46-.86-3.59-2.12-2.12-7.63,8.89-16.63,16.19-26.92,21.79-1.7.92-.18,3.51,1.51,2.59h0Z"/>
  <path d="M152.83,82.69c3.01-1.87,6.03-4.11,8.41-6.75,1.29-1.43-.82-3.56-2.12-2.12-2.23,2.46-4.99,4.53-7.8,6.28-1.64,1.02-.13,3.61,1.51,2.59h0Z"/>
  <path d="M165.15,81.92c14.11-10.33,26.31-23.27,36.77-37.23,1.16-1.55-1.45-3.04-2.59-1.51-10.12,13.52-22.03,26.15-35.69,36.15-1.54,1.13-.05,3.73,1.51,2.59h0Z"/>
</svg>