<?xml version="1.0" encoding="UTF-8"?>
<svg id="Layer_12" data-name="Layer 12" xmlns="http://www.w3.org/2000/svg" viewBox="0 0 351 317">
  <defs>
    <style>
      .cls-1 {
        fill: #fff;
      }

      .cls-2 {
        fill: none;
        stroke: #000;
        stroke-miterlimit: 10;
        stroke-width: 27px;
      }
    </style>
  </defs>
  <circle class="cls-2" cx="249.64" cy="208.87" r="30.6"/>
  <g>
    <path class="cls-1" d="M99.62,6.75h151.76c51.22,0,92.8,41.58,92.8,92.8v17.01c0,51.22-41.58,92.8-92.8,92.8H99.62c-51.22,0-92.8-41.58-92.8-92.8v-17.01C6.82,48.33,48.4,6.75,99.62,6.75Z"/>
    <path d="M251.38,13.25c47.59,0,86.3,38.71,86.3,86.3v17.01c0,47.59-38.71,86.3-86.3,86.3H99.62c-47.59,0-86.3-38.71-86.3-86.3v-17.01C13.32,51.96,52.03,13.25,99.62,13.25h151.76M251.38.25H99.62C44.78.25.32,44.71.32,99.55v17.01c0,54.84,44.46,99.3,99.3,99.3h151.76c54.84,0,99.3-44.46,99.3-99.3v-17.01C350.68,44.71,306.22.25,251.38.25h0Z"/>
  </g>
  <circle class="cls-1" cx="249.64" cy="208.87" r="30.6"/>
  <circle class="cls-2" cx="305.25" cy="288.51" r="14.74"/>
  <circle class="cls-1" cx="305.25" cy="288.51" r="14.74"/>
</svg>