<?xml version="1.0" encoding="UTF-8"?>
<svg id="Layer_13" data-name="Layer 13" xmlns="http://www.w3.org/2000/svg" viewBox="0 0 77 77">
  <path d="M49.11,46.61c.5,5.75-5.21,9.75-10.47,9.87-2.66.06-5.41-.85-6.88-3.19-1.2-1.9-1.54-4.31-1.02-6.49,1.18-4.87,6.95-8.43,11.86-7.93.71.07,1.41.27,1.96.73.21.18.39.37.53.61.07.13.18.84.29.43.09-.35-.03.02-.22.05-.22.04-.4.11-.63.12-.59.05-1.18-.12-1.72-.36-2.43-1.08-4.09-3.55-4.19-6.2-.12-3.21,1.67-6.38,4.67-7.66,1.14-.49,3.22-1.07,4.35-.32,1.04.69,1.69,1.97,2.71,2.75l-.54-2.05c-.69,1.44-.8,3.18-1.61,4.54s-2.48,2.29-3.81,2.99c-3.09,1.61-6.59,1.51-8.89-1.33l.44,1.06c.18-6.69,7.22-10.5,13.07-7.56,1.31.66,2.5,1.52,3.59,2.5s2.45,2.25,2.86,3.77c.79,2.92-2.88,4.38-5.09,4.91-5.63,1.36-12.19-.3-16.25-4.5-.97-1-1.85-2.26-1.91-3.7-.07-1.64.95-3.17,1.94-4.38,1.88-2.32,4.32-4.2,7.06-5.4,5.46-2.41,12.23-1.79,16.87,2.08,2.28,1.9,4.06,4.62,4.01,7.67-.05,2.87-1.39,5.81-2.93,8.17-2.99,4.58-7.87,7.92-13.28,8.87-1.63.29-3,.2-4.57-.29-.84-.26-1.69-.54-2.53-.81s-1.72-.42-2.36-1.03c-1.17-1.1-2.13-2.57-3.15-3.81-.51-.62-.99-1.15-1.2-1.94-.28-1.03-.31-2.2-.33-3.27-.14-6.47,2.82-12.48,7.37-16.96s11.19-7.82,16.83-3.32c9.88,7.88,4.72,26.23-7.7,27.98-6.23.88-12.6-2.91-14.5-8.97-1.76-5.63.13-12.57,4.71-16.36,2.25-1.86,5.11-2.63,7.84-1.35,1.3.61,2.44,1.53,3.48,2.5,1.13,1.06,2.39,2.21,3.26,3.5s1.34,2.99,1.93,4.46c.61,1.55,1.44,3.15,1.74,4.8.53,2.88.07,6.3-.39,9.17-.93,5.85-3.04,11.58-6.6,16.35-3.23,4.32-9.58,10.35-15.38,7.04-.54-.31-1.21-.7-1.57-1.22-.42-.58-.35-1.3-.41-2.01-.07-.77-.15-1.55-.2-2.32-.07-1.06.22-1.75.7-2.69,1.5-2.98,3.28-5.83,5.3-8.49,3.69-4.85,8.56-10.21,14.75-11.6,2.95-.66,6.03-.27,8.55,1.44l-.69-.9c.16,1.01.31,2.01.47,3.02.08.54.2,1.08.25,1.62.06.63-.22.94-.58,1.42-1.35,1.8-2.72,3.58-4.08,5.37-.58.76-1.13,1.49-1.94,2.02-.89.59-1.89,1.04-2.83,1.54-1.95,1.02-3.89,2.05-5.84,3.07-1.01.53-1.75.8-2.89.79s-2.31-.04-3.47-.07c-1.07-.02-2.15-.04-3.22-.06-.28,0-1.05.09-1.23,0-.27-.14-.65-1.03-.87-1.39-.54-.87-1.09-1.75-1.63-2.62-.21-.34-.65-.82-.7-1.23s.28-1.08.4-1.49c.49-1.65,1.09-3.27,1.82-4.84,2.91-6.27,7.49-11.76,13.19-15.67.64-.44,1.36-1.04,2.09-1.32.86-.32,2.05-.08,2.95-.05,2.22.08,4.21.07,6.21,1.17,3.31,1.82,6.52,4.16,9.15,6.87s4.64,6.16,5.53,9.94c.11.46.31,1.03.25,1.5s-.39.82-.66,1.21c-.65.94-1.3,1.88-1.95,2.82-.52.75-1.04,1.9-1.8,2.43-.81.56-2.04.79-2.97,1.13-2.09.76-4.18,1.53-6.27,2.28-1.95.7-3.8.77-5.85.8-3.88.07-7.82.05-11.63-.79-7.52-1.66-13.38-7.04-14.77-14.76-1.23-6.83,1.67-14.35,7.6-18.12,3.01-1.91,7.1-3.05,10.49-1.46,3.61,1.69,4.36,5.26,3.5,8.88-.81,3.4-3.37,6.36-5.88,8.7-2.72,2.54-5.99,4.55-9.48,5.84-1.99.74-4.07,1.28-6.17,1.58-.94.14-2.01.36-2.91,0-.98-.4-1.92-.94-2.86-1.4-.41-.2-.83-.4-1.24-.61-.46-.23-.32-.12-.46-.49-.35-.94-.35-2.19-.5-3.18s-.41-1.97-.11-2.97c.27-.91.67-1.79,1.07-2.64,3.03-6.52,8-12.03,13.79-16.25,3.2-2.34,6.68-4.38,10.41-5.74,1.82-.66,3.7-1.18,5.61-1.5,2.16-.37,4.05.27,6.14.79,1.01.25,2.05.46,3.05.76s1.49,1.1,2.13,1.86,1.31,1.54,1.97,2.31,1.51,1.5,1.96,2.37c.39.75.35,1.78.44,2.62.12,1.1.24,2.2.36,3.3.11,1.02.27,2.04.33,3.07.07,1.18-.28,2.17-.69,3.26-.77,2.07-1.55,4.15-2.33,6.22-.72,1.93-2.24,2.95-3.77,4.25-.84.71-1.68,1.43-2.53,2.14-.72.61-1.47,1.45-2.39,1.74s-1.93.29-2.85.4c-1.13.14-2.26.28-3.4.42-.71.09-1.74.4-2.28.11-.87-.49-1.69-1.67-2.4-2.37s-1.48-1.47-2.23-2.2c-.3-.29-.66-.58-.91-.92-.36-.5-.35-1.07-.41-1.67-.2-2.2-.4-4.4-.6-6.6-.09-.93-.25-1.9-.15-2.84.1-1.05.54-2.08.86-3.08.67-2.06,1.29-4.15,2-6.19s2.15-3.48,3.5-5.09c.68-.82,1.37-1.64,2.05-2.45.27-.32.5-.7.89-.84.42-.15,1.05-.08,1.5-.11,1.08-.07,2.15-.15,3.23-.22.44-.03.95-.14,1.38-.09.58.06.82.5,1.23.94,1.51,1.62,3.01,3.25,4.52,4.87.57.61,1.29,1.2,1.52,2.03.26.99.31,2.07.45,3.09.3,2.15.6,4.29.91,6.44.13.92.42,1.95.35,2.88-.08,1-.74,2-1.15,2.91-.93,2.04-1.85,4.08-2.78,6.12-.45.98-.89,1.97-1.34,2.95s-.8,2.11-1.43,2.99c-.57.8-1.56,1.36-2.34,1.94-.92.68-1.84,1.37-2.76,2.05-1.77,1.32-3.54,2.64-5.31,3.96-.87.65-1.6,1.51-2.72,1.38s-2.23-.4-3.34-.59c-2.15-.38-4.29-.76-6.44-1.14-.38-.07-.87-.08-1.23-.24-.46-.21-.73-.73-1.04-1.13-.71-.93-1.41-1.85-2.12-2.78-.66-.86-1.31-1.72-1.97-2.58-.58-.76-1.41-1.57-1.74-2.48-.3-.85-.22-1.91-.29-2.8-.08-1.05-.16-2.09-.24-3.14-.07-.96.73-1.3,1.42-1.88.86-.72,1.71-1.43,2.57-2.15,1.48-1.24-.65-3.35-2.12-2.12-.92.77-1.84,1.54-2.75,2.31-.87.73-1.84,1.39-2.09,2.57-.2.94.03,2.02.1,2.96.09,1.25.16,2.5.29,3.75.24,2.39,1.92,4.04,3.32,5.88.76.99,1.51,1.99,2.27,2.98.7.93,1.37,2.04,2.25,2.8.8.69,1.79.8,2.8.98,1.27.23,2.54.45,3.81.68,1.19.21,2.38.42,3.58.63s2.51.6,3.74.57c1.08-.02,1.83-.67,2.66-1.28,1.05-.78,2.1-1.56,3.15-2.35,2.1-1.56,4.2-3.13,6.3-4.69.8-.59,1.68-1.15,2.33-1.91.79-.93,1.21-2.1,1.71-3.19,1.1-2.42,2.2-4.84,3.3-7.26.52-1.13,1.03-2.27,1.55-3.4.45-1,.97-1.98,1.03-3.1.06-1.04-.2-2.12-.34-3.15-.18-1.27-.36-2.54-.54-3.82-.17-1.19-.34-2.38-.5-3.58-.16-1.1-.2-2.3-.58-3.35-.33-.92-.98-1.6-1.63-2.3-.89-.96-1.79-1.92-2.68-2.89-.84-.9-1.67-1.8-2.51-2.71s-1.51-1.59-2.75-1.66c-1.05-.06-2.15.13-3.2.2-1.18.08-2.37.12-3.55.25-2.32.25-3.64,2.7-5.02,4.35-1.49,1.78-3.04,3.43-3.89,5.61s-1.55,4.7-2.3,7.04c-.35,1.07-.72,2.13-.85,3.26s.03,2.32.14,3.48c.23,2.5.38,5.02.69,7.5s2.35,3.83,3.97,5.42c.8.79,1.6,1.58,2.4,2.37.7.68,1.38,1.3,2.41,1.36,1.15.07,2.41-.25,3.55-.4,1.29-.16,2.59-.32,3.88-.48.97-.12,1.93-.2,2.83-.64.99-.49,1.82-1.3,2.65-2.01,1.77-1.5,3.7-2.92,5.34-4.57s2.17-4,2.94-6.07c.83-2.22,2.12-4.62,2.11-7.04s-.51-5.07-.79-7.55c-.1-.91-.13-1.87-.45-2.73-.38-1.01-1.15-1.8-1.84-2.6-.81-.95-1.62-1.9-2.42-2.84-.71-.83-1.37-1.8-2.27-2.44s-1.99-.82-3.03-1.08c-1.26-.32-2.53-.63-3.79-.95-1.03-.26-2.06-.54-3.12-.55-1.17,0-2.4.25-3.54.49-2.18.45-4.29,1.15-6.34,2.01-4.12,1.73-7.9,4.13-11.39,6.9-3.23,2.57-6.13,5.52-8.61,8.82-1.23,1.64-2.35,3.37-3.32,5.18s-2.03,3.78-2.42,5.76c-.22,1.09,0,2.16.17,3.25.19,1.21.38,2.43.58,3.64.37,2.22,2.34,2.74,4.15,3.63.94.46,1.89,1.05,2.9,1.33,1.2.33,2.49.1,3.7-.07,2.26-.31,4.48-.86,6.62-1.65,4.06-1.5,7.8-3.77,10.95-6.75,2.88-2.72,5.66-6.17,6.56-10.1.96-4.21.23-8.44-3.39-11.13s-8.19-2.53-12.1-.97c-7.33,2.92-12.02,10.46-12.3,18.23-.32,8.75,4.81,16.87,12.88,20.26,4.01,1.68,8.4,2.18,12.72,2.27,2.19.05,4.4.04,6.59-.07,2.52-.13,4.79-1.09,7.13-1.94,2.21-.8,4.71-1.41,6.78-2.53.93-.5,1.48-1.33,2.07-2.18.74-1.07,1.48-2.15,2.22-3.22.62-.9,1.45-1.83,1.71-2.91s-.09-2.28-.35-3.32c-.52-2.12-1.36-4.19-2.45-6.08-2.18-3.78-5.41-6.76-8.92-9.29-1.83-1.32-3.75-2.68-5.81-3.6-2.18-.96-4.44-.92-6.78-1.01-1.04-.04-2.16-.19-3.19.06s-1.84.85-2.66,1.4c-1.65,1.1-3.23,2.32-4.71,3.63-2.96,2.63-5.55,5.71-7.65,9.06s-3.88,7.16-4.81,11.04c-.57,2.4,1.09,4.2,2.3,6.14.54.86,1.02,1.98,1.81,2.64s1.88.61,2.88.63c2.51.05,5.05.2,7.56.14,2.33-.06,4.38-1.51,6.38-2.56,2.13-1.12,4.47-2.09,6.43-3.49,1.86-1.32,3.11-3.45,4.47-5.24,1.42-1.88,3.52-3.74,3.21-6.27-.13-1.08-.33-2.16-.49-3.24-.22-1.39-.21-2.3-1.47-3.08-3.51-2.17-8.07-2.29-11.91-.98-4.04,1.37-7.44,4.1-10.38,7.12-3.17,3.26-5.95,6.93-8.25,10.85-1.03,1.75-2.49,3.86-2.77,5.9-.14,1.06.06,2.16.15,3.22s.05,2.19.39,3.17c.61,1.78,2.73,3.04,4.37,3.71,1.94.79,4.06.91,6.1.47,4.04-.87,7.52-3.78,10.2-6.8s4.76-6.53,6.29-10.28,2.44-7.69,2.88-11.7c.22-2.01.33-4.05.27-6.08-.08-2.35-.93-4.35-1.79-6.51s-1.45-4.39-2.8-6.16-2.88-3.28-4.53-4.62c-3.13-2.55-6.98-3.84-10.88-2.26-7.52,3.06-10.99,12.78-9.27,20.3,1.94,8.52,10.71,13.77,19.16,12.08,8.16-1.63,13.68-9.39,14.32-17.39.64-8.04-3.93-17.31-12.64-18.41-4.46-.56-8.57,1.4-11.99,4.11s-6.03,5.86-7.91,9.56c-2.01,3.95-3.01,8.38-2.69,12.81.08,1.09.16,2.28.49,3.32.35,1.11,1.14,1.96,1.87,2.84,1.29,1.57,2.59,3.85,4.46,4.77.96.47,2.05.73,3.07,1.06,1.13.36,2.26.81,3.43,1.02,2.08.39,4.3.02,6.32-.54,3.59-.98,6.91-2.91,9.63-5.44,5.52-5.14,9.66-14.16,4.77-21.02-4.92-6.89-14.59-8.93-22.24-5.81-3.8,1.55-7.15,4.16-9.53,7.52-1.15,1.62-2,3.6-1.82,5.63s1.32,3.95,2.76,5.44c5.37,5.56,14.88,7.57,21.95,4.32,3.61-1.66,5.8-5.28,3.82-9.08-1.81-3.49-5.9-6.45-9.6-7.58-4.01-1.23-8.49-.21-11.55,2.66-1.45,1.36-2.53,3.13-3.13,5.02-.3.92-.46,1.89-.52,2.85-.08,1.23.58,1.98,1.48,2.75,3.14,2.7,7.3,2.65,10.91.96,1.71-.8,3.53-1.98,4.77-3.42,1.38-1.59,1.4-3.63,2.27-5.45.38-.8.15-1.52-.54-2.05-1.33-1.02-1.92-2.61-3.62-3.19s-3.91-.24-5.57.39c-3.75,1.41-6.37,4.75-6.93,8.72s1.07,7.7,4.31,9.97c1.38.97,3.08,1.62,4.78,1.47,1.46-.12,3.37-1.04,3.49-2.72.12-1.78-1.19-3.51-2.67-4.35-1.79-1.02-3.94-.97-5.91-.67-3.48.54-6.95,2.28-9.26,4.97-4.56,5.31-3.89,14.56,3.08,17.52,7.87,3.34,19.34-2.69,18.53-11.94-.17-1.91-3.17-1.93-3,0h0Z"/>
  <path d="M45.47,43.48c.56,1.72,1.86,2.78,3.27,3.81,1.52,1.12,3.16,2.08,4.87,2.87,3.43,1.58,7.38,2.83,11.2,2.49,3.3-.29,6.61-1.89,8.26-4.89,1.8-3.27.71-7.22-.44-10.54-1.28-3.68-4.01-6.2-6.74-8.85s-5.51-5.13-8.57-7.32-6.54-4.16-10.23-5.19-7.87-1.14-11.65-.78c-4.26.41-6.44,3.96-7.82,7.66-1.48,3.96-1.44,8.53.93,12.13,1.05,1.61,3.65.11,2.59-1.51-1.73-2.64-1.88-5.78-.99-8.76.74-2.47,2.21-6.05,5.09-6.5,1.49-.23,3.12-.13,4.62-.11,1.63.02,3.27.09,4.87.4,3.14.6,6.04,2.01,8.74,3.68,5.14,3.2,9.79,7.53,13.88,11.99,2.16,2.36,3.2,5.63,3.64,8.76.39,2.85-1.19,5.19-3.82,6.25-3.31,1.33-7.18.36-10.38-.83-1.65-.61-3.23-1.41-4.72-2.34-1.2-.75-3.23-1.8-3.7-3.24-.6-1.83-3.49-1.05-2.89.8h0Z"/>
  <path d="M47.78,46.21c-1.45-1.43-3.17-2.49-4.86-3.61-1.82-1.21-3.33-2.7-4.79-4.32s-2.87-3.16-3.95-4.99c-1.15-1.94-1.96-4.09-2.85-6.16s-2.07-4.1-1.72-6.39c.31-2.07,1.52-3.88,2.89-5.41s2.93-3,4.66-4.14,3.64-2.15,5.66-1.38c3.94,1.49,7.17,5.14,9.07,8.78.89,1.71,3.48.2,2.59-1.51-2.03-3.89-5.2-7.23-9.06-9.33-2.1-1.15-4.27-1.6-6.58-.77s-4.28,2.25-6.07,3.85c-3.46,3.09-6.94,7.34-6.12,12.3.42,2.57,1.9,5.09,2.93,7.46s2.11,4.6,3.72,6.64c1.72,2.18,3.6,4.39,5.73,6.19s4.66,2.96,6.62,4.91c1.37,1.36,3.5-.76,2.12-2.12h0Z"/>
  <path d="M61.17,40.98c-.78,3.81-3.26,6.89-4.78,10.41-.77,1.77-1.31,3.41-2.82,4.69s-3.19,2.54-5.03,3.3c-3.09,1.27-7.29-1.37-9.28-3.67-1.26-1.45-1.81-3.22-2.11-5.09-.35-2.15-.6-4.36-.63-6.54-.07-4.93,2.34-9.51,4.85-13.63,1.01-1.65-1.59-3.16-2.59-1.51-2.55,4.18-5.04,8.97-5.24,13.95-.11,2.56.25,5.14.6,7.68.31,2.23.87,4.4,2.2,6.25,1.19,1.65,2.77,2.99,4.55,3.98s3.86,1.91,5.87,1.97c2.23.07,4.44-1.25,6.21-2.47,1.87-1.3,3.84-2.72,4.91-4.79.56-1.08.94-2.25,1.45-3.36s1.14-2.2,1.74-3.28c1.26-2.25,2.48-4.55,3-7.1.38-1.88-2.51-2.69-2.89-.8h0Z"/>
  <path d="M40.69,41.64c-.52,2.15-1.02,4.4-2.3,6.24-.6.87-1.39,1.58-2.1,2.35-.81.88-1.52,1.83-2.26,2.77-2.75,3.49-6.33,5.9-10.27,7.88-1.09.55-1.94.87-2.99.08-.8-.6-1.41-1.45-1.86-2.33-.91-1.77-1.11-3.84-.85-5.8.64-4.71,3.63-8.7,5.95-12.69.97-1.67-1.62-3.18-2.59-1.51-3.84,6.59-9.78,15.33-4.31,22.79,1.07,1.46,2.62,2.88,4.5,3.05,2.03.19,4.03-1.14,5.73-2.1,3.68-2.07,6.77-4.63,9.36-7.96,1.43-1.84,3.28-3.39,4.51-5.37,1.25-2,1.83-4.34,2.38-6.61.45-1.88-2.44-2.68-2.89-.8h0Z"/>
  <path d="M36.91,42.9c-.36,1.06-2.41.93-3.27.92-1.95-.03-3.89-.25-5.8-.69-3.3-.75-6.74-1.99-8.54-5.06-3.21-5.45-1.04-12.84,3.12-17.14,4.45-4.59,12.96-6.59,18.03-1.79,2.59,2.45,3.37,6.08,2.49,9.48s-3.23,6.23-6.01,8.26-6.29,3.52-9.83,3.87c-3.24.33-7.49-.06-9.95-2.48-1.18-1.16-1.63-2.88-.49-4.22s3.07-1.74,4.73-1.98c3.73-.55,7.61-.07,11.12,1.29,2.9,1.12,5.88,3.13,6.52,6.37.61,3.05-.34,6.66-1.8,9.35s-3.67,4.83-6.57,5.81c-3.22,1.09-6.79,1.32-10.11.61s-6.35-2.48-8.8-4.98c-2.24-2.28-5.5-5.65-5.28-9.09s3.44-6.05,6.52-7.33c3.42-1.41,7.22-2.14,10.92-2.05,1.9.05,3.74.35,5.56.89s2.65-2.34.8-2.89c-4.53-1.35-9.33-1.24-13.9-.15-4.22,1-8.63,2.79-11.16,6.49-1.19,1.74-1.89,3.91-1.71,6.02s1.27,4.18,2.57,5.93c2.54,3.45,5.54,6.78,9.5,8.61,7.25,3.35,17.47,2.66,22.67-3.95,2.43-3.09,3.76-6.97,3.93-10.89.19-4.42-1.96-7.91-5.7-10.15s-8.73-3.3-13.23-3.05c-3.84.21-9.18,1.26-10.13,5.73s3.5,7.57,7.32,8.6c4.31,1.16,9,.63,13.1-1.05,7.72-3.16,15.33-11.57,12.09-20.49s-14.1-10.12-21.41-5.92c-6.82,3.92-10.86,12.6-8.9,20.31,1.02,4.04,3.76,7.02,7.57,8.62,2.13.89,4.4,1.45,6.69,1.77,2.14.31,4.45.57,6.59.15,1.7-.33,3.09-1.26,3.66-2.94.62-1.83-2.28-2.62-2.89-.8h0Z"/>
  <path d="M41.34,51.03c1.93,0,1.93-3,0-3s-1.93,3,0,3h0Z"/>
  <path d="M31.74,27.16c2.28,3.25,5.49,5.48,8.88,7.44,1.79,1.03,3.61,2,5.37,3.07.33.2.65.4.97.61.48.32.86.38.7.94-.21.74-1.49,1.57-2.05,2.04-5.82,4.81-13.7,6.59-18.68,12.51-.48.57-.52,1.15-.23,1.82,1.34,3.16,4.24,5.28,7.15,6.91,3.48,1.95,7.13,3.64,10.77,5.27,7.59,3.4,15.39,6.32,23.35,8.76,1.39.43,2.59-1.51,1.46-2.51-3.27-2.87-7.44-4.35-11.44-5.91-4.35-1.69-8.75-3.25-13.21-4.64-8.9-2.77-18.01-4.85-27.26-6.06-5.24-.68-10.52-1.05-15.81-1.09l1.45,1.1c-.23-1.28,2.16-2.28,3.01-2.74,1.75-.96,3.51-1.9,5.29-2.81,3.63-1.87,7.31-3.63,11.03-5.3,7.45-3.33,15.08-6.22,22.84-8.73l-.8-2.89c-4.38,1.84-8.66,3.89-12.81,6.2-2.01,1.12-3.98,2.3-5.92,3.53-1.4.89-4.13,3.48-5.94,2.63l.74,1.3c1.26-15.32-3.46-30.84-12.4-43.28l-.23,1.82,1.47-1.79-1.46.39c11.79,2.86,21.31,11.05,32.54,15.3,1.34.51,2.2-1.14,1.69-2.2-2.86-6.02-5.93-11.93-9.22-17.72l-2.05,2.05c9.98,6.35,17.28,16.14,27.67,21.92.56.31,1.36.26,1.82-.23,5.34-5.83,6.09-13.96,6.61-21.49.03-.48-.3-1.09-.74-1.3l-1.79-.85c-.62-.29-1.31-.26-1.82.23-5.39,5.25-10.46,10.99-14.71,17.22-2.01,2.94-3.6,6.16-3.96,9.75-.18,1.78,0,3.66.58,5.36.24.69.58,1.35.83,2.04.11.3.24.62.3.94.05.16.07.32.06.49-.04.16-.03.17.01.03l1.16-.15c-3.3-1.03-6.52-2.27-9.64-3.75l-1.16,2.74c8.87,2.48,17.74,4.97,26.61,7.45l.4-2.95c-10.54-1.11-21.14-1.42-31.73-.9-1.92.1-1.93,3.1,0,3,10.58-.53,21.19-.22,31.73.9,1.72.18,1.98-2.5.4-2.95-8.87-2.48-17.74-4.97-26.61-7.45-1.59-.45-2.73,2-1.16,2.74,1.74.82,3.5,1.59,5.29,2.29.87.34,1.75.66,2.63.97s2.08.95,3.04.82c1.4-.19,2.09-1.84,2.02-3.09-.09-1.51-.9-2.79-1.35-4.19-1.17-3.65,0-7.42,1.88-10.6s4.23-6.1,6.58-8.94c2.8-3.38,5.78-6.59,8.93-9.65l-1.82.23,1.79.85-.74-1.3c-.46,6.67-.99,14.19-5.74,19.37l1.82-.23c-10.38-5.77-17.69-15.57-27.67-21.92-1.3-.83-2.77.79-2.05,2.05,3.29,5.79,6.37,11.7,9.22,17.72l1.69-2.2C30.08,13.93,20.61,5.75,8.78,2.89c-.48-.12-1.12-.03-1.46.39l-1.47,1.79c-.39.48-.64,1.25-.23,1.82,8.66,12.06,13.21,26.9,11.99,41.76-.04.48.31,1.09.74,1.3,2.23,1.05,4.35.34,6.33-.91,2.18-1.38,4.32-2.81,6.55-4.11,4.54-2.65,9.25-5.01,14.09-7.04,1.72-.72,1.09-3.5-.8-2.89-8.59,2.77-17.03,6.04-25.24,9.79-4.06,1.85-8.06,3.83-12,5.92-2.96,1.57-7.75,3.39-7.02,7.55.11.64.83,1.1,1.45,1.1,18.02.12,35.77,4.29,52.59,10.57,4.37,1.63,9.43,3.11,12.99,6.24l1.46-2.51c-7.55-2.32-14.98-5.05-22.2-8.27-3.5-1.56-6.98-3.2-10.36-5-2.81-1.5-5.63-3.26-6.92-6.3l-.23,1.82c4.14-4.92,10.48-6.96,15.74-10.36,2.19-1.42,6.26-3.88,5.98-6.92-.17-1.85-2.02-2.78-3.43-3.64s-2.91-1.67-4.37-2.5c-3.2-1.81-6.49-3.77-8.65-6.84-1.1-1.57-3.7-.07-2.59,1.51h0Z"/>
</svg>