<?xml version="1.0" encoding="UTF-8"?>
<svg id="Layer_15" data-name="Layer 15" xmlns="http://www.w3.org/2000/svg" viewBox="0 0 112 112">
  <defs>
    <style>
      .cls-1 {
        fill: #f3a4ae;
        stroke: #000;
        stroke-miterlimit: 10;
        stroke-width: 3px;
      }

      .cls-2 {
        fill: #d17d88;
      }
    </style>
  </defs>
  <path class="cls-1" d="M101.3,35.57c.92-2.43,3-4.39,4.74-6.21,3.66-3.83.74-9.44-4-9.89-4.95-.47-9.87-.35-14.8.31-3.55.48-6.89,1.36-10.25,2.33-.28-.94-.54-1.89-.76-2.83.36-1.52.2-3.23-.6-4.33-4.57-6.23-11.79-9.14-19.36-8.31-7.81.85-14.89,4.63-22.21,7.27-6.75,2.44-13.78,4.78-19.78,8.89-3.17,2.17-6.36,4.78-8.53,8.04-2.48,3.74-2.17,8-.95,12.14,1.19,4.03,2.94,7.89,5.11,11.46,1.96,3.22,4.36,6.35,5.45,10.02.65,2.2,1,4.47,1.29,6.74-1.91.53-3.62,1.96-3.98,4-1.13,6.48.57,12.24,3.11,18.15,2.24,5.21,5.51,9.62,10.76,11.89,5.08,2.2,11.03,2.57,16.49,2.88,5.84.32,11.67-.34,17.1-2.62,5.5-2.31,10.46-5.61,15.55-8.71,4.98-3.04,10.16-5.71,15.17-8.7,9.77-5.84,15.37-18.04,16.12-29.38.44-6.67-2.61-11.64-5.03-17.51-.75-1.81-1.34-3.71-.62-5.61Z"/>
  <path class="cls-2" d="M94.02,60.11c5.55-7.65-6.06-18.48-14.08-22.72-4.76-2.51-7.81-2.98-12.12-1.69-2.62-5.76-4.75-11.17-9.81-12.38-2.51,2.63-4.92,5.33-7.26,8.09-5.67,7.56-11.66,14.89-17.37,22.43-.68,1-1.36,2-2.05,2.99-.27.39-.57.72-.87,1,0,.14-.02.29-.03.43-.03.83-.22,1.55-.53,2.17.33,1.26.83,2.41,1.56,3.4,1.57,8.85,8.49,12.61,16.14,15.46,13.48,5.03,32.37-.42,41.81-7.2,3.61-2.59-6.84,2.56-3.76-.71,3.14-3.33,5.7-7.58,8.38-11.28Z"/>
  <path class="cls-2" d="M12,69.75c-1.57,8.57-.04,18,4.48,25.48,4.92,8.14,12.58,10.29,21.41,12.07.14.03.29.06.43.08,6.13-4.33,13.8-6.4,21.8-7.1,5.53-2.33,11.43-3.9,17.28-5.55.7-.23,1.41-.45,2.11-.67-5.14-1.37-10.25-3.05-15.47-3.97-7.44-1.31-13.74-.11-21.13.41-2.66.18-5.44.33-8.13.08,0,0,0,0,0,0,.01,0,0-.01-.01-.02-.14-.19-.96-.61-.61-.15,0,0,0,0-.01,0-.55-.54-1.09-1.11-1.6-1.69-.14-.2-.71-.95-1.17-1.63-.6-.89-1.15-1.79-1.69-2.71.69,1.11-.4-1.07-.63-2.37-1.32-7.53-9.36-12.94-16.96-13.24,0,.32-.03.65-.1.99Z"/>
  <path d="M47.68,60c-.75-5.45.75-11.16,3.27-15.98,1.44-2.76,3.25-5.27,5.15-7.73.96-1.26,1.93-2.51,2.9-3.76.92-1.19,1.78-2.68,2.93-3.66l-1.32.77c-.12.05-.89-.26-.92-.2,0,.01.53.56.57.6.31.35.62.72.91,1.09.77.98,1.45,2.02,2.13,3.06,1.42,2.17,2.8,4.36,4.14,6.58s2.61,4.37,3.86,6.58,2.27,4.77,4.22,6.39c1.24,1.04,3.02,1.22,4.24,0,1.07-1.07,1.25-3.2,0-4.24-.76-.63-1.18-1.4-1.65-2.26-.65-1.18-1.31-2.37-1.98-3.54-1.26-2.21-2.55-4.4-3.88-6.57s-2.71-4.38-4.13-6.52c-1.3-1.95-2.69-4.15-4.49-5.67-1.18-1-2.72-1.62-4.28-1.22s-2.41,1.75-3.34,2.96c-1.55,2-3.09,4.01-4.64,6.01-3.06,3.97-5.75,8.01-7.57,12.71-2.01,5.19-2.65,10.69-1.89,16.19.22,1.61,2.28,2.48,3.69,2.1,1.73-.48,2.32-2.08,2.1-3.69h0Z"/>
  <path d="M45.71,62.01c.93.11.4.04.2.01.31.04.62.09.92.14.54.09,1.08.18,1.61.29,1.23.24,2.44.52,3.65.83,2.35.6,4.67,1.32,6.98,2.07,4.6,1.48,9.21,2.97,13.74,4.66,1.12.42,2.23.84,3.34,1.29,1.29.52,1.5.62,2.87,1.23,2.84,1.26,5.79,2.08,8.69.39,2.2-1.29,3.65-3.55,5.04-5.62,1.21-1.8,2.33-3.67,3.36-5.58,4.26-7.88,7.2-16.4,10.13-24.83,1.43-4.1,2.86-8.2,4.47-12.23.44-1.1.95-2.15,1.11-3.33.25-1.84-.1-3.56-1.25-5.04-1.97-2.55-5.03-3.09-8.07-2.74-11.14,1.29-21.83,4.21-32.12,8.64-2.17.94-2.82,4.29-1.61,6.16,1.45,2.25,3.84,2.62,6.16,1.61.08-.03.79-.34.21-.09.21-.09.43-.18.64-.27.5-.21,1-.41,1.51-.61,1.01-.4,2.02-.78,3.04-1.14,2.04-.73,4.09-1.39,6.17-2,4.15-1.2,8.37-2.15,12.63-2.84.53-.09,1.07-.17,1.6-.25.23-.03.46-.07.69-.1-.1.01-.58.07-.05,0,.37-.04,3.27-.58,3.41-.28.02.06-.57-.1-.54-.09-.31-.11-.54-.3-.74-.57-.3-.4-.38-.94-.53-1.42-.08-.25.19-.53-.06-.21-.56.7-.85,2.1-1.17,2.94-1.46,3.71-2.77,7.47-4.08,11.24s-2.61,7.53-4.04,11.25c-.33.86-.67,1.72-1.01,2.57-.19.46-.37.92-.56,1.37.28-.69-.26.61-.38.87-.79,1.8-1.62,3.58-2.52,5.33s-1.85,3.46-2.89,5.12c-.48.77-.98,1.54-1.49,2.29-.28.41-.57.8-.85,1.21-.03.05-.45.62-.12.19.36-.47-.3.33-.37.42-.04.05-.48.53-.09.15.35-.34,0,.05-.13.08.33-.08.52-.17.86-.21.11-.01.68.21.2.03-.18-.07-.4-.13-.59-.18.69.18.11.05-.07-.03-.58-.26-1.16-.52-1.75-.77-2.26-.97-4.53-1.89-6.84-2.74-4.61-1.7-9.29-3.22-13.97-4.72-5.02-1.61-10.05-2.92-15.3-3.51-2.35-.27-4.6,2.26-4.5,4.5.12,2.67,1.99,4.21,4.5,4.5h0Z"/>
  <path d="M82.46,15.66c.16-.02.7-.17.88,0-.06-.06-.6-.15-.73-.19.21.07.7.4.02-.03-.23-.14-.45-.28-.68-.42-.14-.09-.63-.53-.06-.04-.21-.18-.42-.35-.62-.53-.44-.39-.86-.8-1.29-1.2-1.92-1.81-3.84-3.62-5.76-5.42s-3.78-3.67-5.95-5.16c-2.35-1.62-5.14-2.35-7.96-2.49-4.81-.24-9.95,1.19-14.51,2.61s-8.97,3.26-13.23,5.37c-8.57,4.25-16.42,9.73-23.96,15.58-1.75,1.35-3.59,2.67-5.2,4.19C1.24,29.93.05,32.63.11,35.58c.1,5.06,2.29,9.94,4.11,14.56,4.22,10.73,8.54,21.5,14.47,31.42,1.21,2.02,4.1,2.94,6.16,1.61s2.91-3.99,1.61-6.16c-2.46-4.12-4.65-8.38-6.66-12.74-.49-1.06-.96-2.12-1.43-3.18-.22-.5-.44-.99-.65-1.49-.12-.28-.25-.57-.37-.86-.04-.09-.47-1.11-.32-.75.18.42-.19-.46-.22-.54-.09-.21-.18-.43-.27-.65-.24-.57-.47-1.15-.71-1.72-.47-1.15-.93-2.3-1.39-3.46-1.75-4.39-3.75-8.8-4.88-13.39-.13-.52-.24-1.04-.33-1.56-.02-.13-.16-1.07-.09-.48.06.52,0-.16,0-.22,0-.28-.02-.55-.02-.82-.01-1.16.02.01-.02-.01-.13-.08.49-.93-.05-.04.13-.22.25-.43.4-.64-.54.75.36-.26.59-.46.34-.3.69-.58,1.04-.86.95-.76,1.9-1.52,2.86-2.27.17-.13.34-.27.51-.4.08-.06.79-.61.4-.31-.35.27.21-.16.23-.17.23-.17.46-.35.69-.52.92-.69,1.84-1.38,2.77-2.06,1.8-1.31,3.62-2.6,5.47-3.83,3.68-2.46,7.47-4.76,11.4-6.8,1.95-1.01,3.93-1.95,5.94-2.83.12-.05.8-.33.1-.04.2-.08.39-.16.59-.24.52-.21,1.05-.42,1.57-.62,1.05-.4,2.11-.78,3.18-1.14,2.07-.69,4.18-1.29,6.3-1.79.96-.23,1.93-.43,2.91-.61.16-.03,1.84-.3,1-.19.59-.08,1.18-.13,1.77-.15.66-.03,1.32.03,1.98.03.7,0-.57-.18.1.01.34.1.71.18,1.06.25.1.02.82.27.16,0,.26.1.52.25.76.39s.48.3.73.45c1.1.68-.27-.28.29.19,2.06,1.73,3.98,3.65,5.94,5.49s3.74,3.69,5.75,5.35c1.35,1.12,2.69,2.05,4.34,2.67s3.26.58,4.99.33c2.34-.35,3.83-3.42,3.14-5.54-.83-2.55-3.03-3.52-5.54-3.14h0Z"/>
  <path d="M8.5,62.9c-.71,11.37-1.34,23.49,3.04,34.26,1.22,3.01,2.62,5.94,4.78,8.41s4.99,3.79,7.93,4.64c5.77,1.66,12.14,1.93,18.09,1.43,12.51-1.04,24.33-5.41,35.66-10.59,5.51-2.52,10.96-5.21,16.15-8.35,2.48-1.5,4.99-3.15,6.98-5.27,2.19-2.34,3.67-5.13,4.43-8.24.81-3.33,1.27-6.79,1.79-10.17.59-3.79,1.1-7.61,1.36-11.44.24-3.58.27-7.18-.1-10.75s-1.32-7.38-4.77-9.2c-2.08-1.09-4.99-.6-6.16,1.61-1.1,2.08-.61,4.99,1.61,6.16.9.47-.44-.52-.01-.07s-.51-.66-.12-.17l.08.14c.22.44.2.38-.05-.18.08.07.19.6.2.65.11.41.33,1.51.15.48.13.75.15,1.53.2,2.28.2,3.01.16,6.03-.05,9.04s-.54,5.74-.89,8.07c-.43,2.88-.92,5.76-1.43,8.63-.21,1.19-.44,2.38-.78,3.54-.1.34-.23.67-.34,1-.21.65.32-.49-.05.09-.18.28-.31.6-.48.88-.05.09-.63.99-.32.52.36-.52-.4.47-.39.46-.17.2-.36.39-.54.57-.37.37-.76.73-1.16,1.07.03-.02-.99.77-.48.39s-.55.38-.51.35c-.54.38-1.1.74-1.66,1.1-4.7,2.96-9.68,5.48-14.71,7.84s-9.18,4.19-14.66,6.11c-5.18,1.81-10.49,3.23-15.91,4.08-.92.14-.35.05-.15.03-.37.05-.75.09-1.12.14-.67.08-1.34.14-2.02.19-1.34.11-2.69.17-4.04.18s-2.69-.02-4.04-.11c-.6-.04-1.2-.09-1.79-.15-.37-.04-.75-.08-1.12-.13-.32-.04-.3-.04.08,0l-.45-.07c-1.25-.22-2.5-.43-3.73-.76-.52-.14-1.02-.32-1.53-.47-1.17-.35.43.27-.21-.07-.35-.18-.71-.35-1.05-.55-.23-.13-.44-.29-.66-.42-.56-.33.6.69-.17-.16-.18-.2-1.13-1.28-.67-.67-.8-1.07-1.43-2.28-2.01-3.48-.15-.32-.3-.64-.45-.96-.35-.74.05.17-.12-.29-.24-.66-.5-1.31-.73-1.98-.47-1.4-.87-2.82-1.19-4.26-.15-.69-.29-1.38-.42-2.08-.05-.28-.1-.56-.14-.84-.01-.07-.22-1.44-.08-.49-.19-1.42-.32-2.84-.41-4.27-.37-5.92-.04-11.85.33-17.76.15-2.35-2.18-4.6-4.5-4.5-2.56.11-4.34,1.98-4.5,4.5h0Z"/>
</svg>