<?xml version="1.0" encoding="UTF-8"?>
<svg id="Layer_4" data-name="Layer 4" xmlns="http://www.w3.org/2000/svg" viewBox="0 0 466 171">
  <defs>
    <style>
      .cls-1 {
        fill: #fff;
      }
    </style>
  </defs>
  <path class="cls-1" d="M34.15,94.9c-.57-6.52-6.57-14.52-14.48-11.88-.91.16-1.83.4-2.73.7-5.53,1.88-10.76,6.36-13.27,10.94-.36.66-.66,1.31-.9,1.97,2.81,5.75,1.81,9.75,4.67,16.76.3.7.62,1.39.96,2.07.68,1.36,1.43,2.67,2.18,3.92,2,1,8,1,8-3-.5-2.5-1.25-5.5-1.25-8.12,0-.66.05-1.29.15-1.89,1.1-7.98,10.1-4.98,15.1-4.98,1-1,2-3,1.73-5.02-.02-.49-.07-.97-.16-1.46Z"/>
  <path class="cls-1" d="M66.5,38.65c.12-5.55-.88-10.95-2.93-16.4-1.51-4.03-7.05-3.57-9.8-1.39-.97.77-1.73,1.66-2.3,2.63-2.46-.28-4.88.02-7.23.62-.57.15-1.13.31-1.69.48-3.58,1.07-7.17,2.22-10.6,4.1-.57.31-1.14.65-1.7,1-3.68,2.68-8.68,5.68-9.88,11.38-.12.54-.19,1.1-.22,1.69-.03.59,0,1.21.08,1.87-.02.46-.02.91.01,1.36.06.89.24,1.75.57,2.56.04.37.11.76.24,1.16,3.97,12.28,11.99,22.19,18.28,33.27,3.32,5.85,5.75,11.93,6.6,18.64.5,3.89,1.66,10.97.21,15.9-3.96.51-8,.33-11.8-.44-.89-.18-1.76-.39-2.62-.63-6.07-.53-9.86-3.8-12.85-7.93-.37-.52-.73-1.05-1.09-1.59-1.21-1.54-2.21-4.54-3.95-6.73-.32-.56-.65-1.12-.97-1.67-.66-1.1-1.33-2.17-2.05-3.17-.56-.24-1.17-.55-1.79-.85-1.57-.47-2.88-.48-3.97-.15-1.1.33-1.98,1.01-2.7,1.93-3.77,9.11-2.77,17.11,1,26.47.3.74.62,1.48.97,2.19,1.05,2.15,2.34,4.15,4.2,5.77.64.61,1.31,1.19,2,1.76,6.85,5.6,15.77,9.19,24.75,9.99,1,.09,2,.14,2.99.16,7.31.78,14.31-3.22,19.64-8.68.55-.82,1.04-1.67,1.49-2.53.15-.29.28-.58.42-.88.05-.08.11-.14.16-.22,7.68-12.24,4.58-27.19-.25-39.87-5.49-14.4-13.47-27.63-23.33-39.44,2.88-1.4,5.67-3.15,8.29-4.31.8-.37,1.57-.7,2.31-.96.75-.28,1.54-.49,2.36-.61.73-.11,1.51-.11,2.31-.05-.5,3.65.96,7.91,5.1,8.46,4.19.55,8.13-3.41,8.91-7.29.18-.92.33-1.83.45-2.73.09.58.24,1.14.43,1.67v-6.62s-.03.07-.04.11Z"/>
  <path class="cls-1" d="M105.86,33.17c-10.02-8.03-27.61-4.14-38.66.2-2.62,1.03-4.3,3.11-5.13,5.44v6.8c1.22,3.12,4.26,5.09,8.99,3.23,1.24-.49,2.5-.88,3.77-1.21-.44,1.53-.53,3.13-.21,4.63,3.67,16.92,3.58,34.16-.31,51.03-2.57,11.11,13.08,11.91,15.41,1.81,4.55-19.7,4.71-39.8.43-59.56-.01-.06-.03-.11-.05-.16,1.56.04,3.04.35,4.16,1.25,8.04,6.44,18.96-7.59,11.6-13.49Z"/>
  <g>
    <path class="cls-1" d="M346.78,138.71c-.36-5.34-1.4-10.37-3.1-15.14-1.17-4.69-3.02-9.21-5.55-13.4-.88-1.47-1.96-2.35-3.11-2.79-2.02-1.33-4.85-1.09-7.23.28-.45.23-.87.49-1.23.78-2.96,2.35-4.05,6.1-3.55,9.73.06.47.13.93.2,1.4-4.38,1.71-12.48-1.39-15.32-3.56-6.05-4.61-4.2-14.7-3.63-21.24,1.26-14.59,5.76-29.16,12.9-42.02.56,1.88,1.32,3.68,2.36,5.35.55,1.51,1.57,2.78,2.84,3.6.93.93,1.97,1.8,3.14,2.61,1.78,1.22,3.89.83,5.74-.24,5.06-.62,10.21-7.92,7.1-13.29-1.59-2.74-2.71-5.51-3.42-8.38.39-3.83.08-7.81-.44-10.91-.16-.96-.54-1.77-1.05-2.46-1.16-2.35-3.66-3.96-6.45-3.49-.61.1-1.18.28-1.72.51-4.42-.26-7.71,4.01-8.4,8.28-.04.1-.07.2-.1.3-2.51-.16-5.21,1.07-6.56,3.19-.92,1.45-1.8,2.92-2.67,4.4-13.91,18.15-19.5,42.03-19.38,64.61.06,11.59,2.72,24.2,12.36,31.67,6.33,4.91,13.96,6.93,21.57,6.24-.2,1.62.02,3.27.82,4.78,1.87,3.5,5.38,5.28,9.28,5.17,3.97-.11,7.37-2.3,10.3-4.8,2.09-1.78,3.74-4.78,3.83-7.7.39-1.05.57-2.22.49-3.49Z"/>
    <path class="cls-1" d="M379.61,97.63c-4.71-19.49-9.3-39.01-8.01-59.2.27-4.21-2.91-8-7.14-7.94-4.52.06-8.21,4.16-9.19,8.36-4.69,20.24-10.55,40.21-17.8,59.68-1.57,4.22-1.89,9.88,2.83,12.27,4.18,2.11,9.88-1.2,11.41-5.32,1.29-3.47,2.54-6.94,3.76-10.43h4.03c.54,0,1.05-.03,1.55-.08.78,3.4,1.59,6.8,2.41,10.18,2.9,12,18.55,2.43,16.14-7.52Z"/>
    <path class="cls-1" d="M420.5,83.67c-1-4.22-5.16-6.15-9.07-4.42-2,.88-3.97,1.82-5.92,2.8.28-2.66.5-5.34.72-8.03,1.06-13.14,1.57-26.32,1.6-39.51.01-4.17-3.03-7.72-7.39-7.12-4.72.65-7.15,5.51-7.58,9.71-1.96,19.07-3.74,38.16-5.37,57.26-.5,1.14-.81,2.39-.9,3.63-2.06,3.23-2.95,7.83-.31,10.95-1.46,18.14-2.78,36.29-3.94,54.46-.27,4.19,3.21,7.7,7.39,7.12,4.59-.64,7.31-5.52,7.58-9.71,1.26-19.73,2.7-39.46,4.32-59.16,4.32-2.52,8.82-4.75,13.39-6.78,4.03-1.78,6.47-6.95,5.46-11.19Z"/>
    <path class="cls-1" d="M456.67,90c-3.6,1.52-10.53,4.05-14.31,1.8-3.34-1.99-2.76-7.73-2.81-11.02-.01-.74,0-1.47-.01-2.21,2.65-1.04,5.01-1.73,8.13-2.37,4.46-.92,8.05-5.54,7.9-10.11-.13-4.11-3.03-8.38-7.7-7.42-2.55.53-5.08,1.2-7.56,2,.4-4.29.94-8.56,1.64-12.82.36-.19.82-.45.95-.52.21-.08.37-.14.5-.19.35-.09.69-.17,1.05-.22.4-.08.81-.14,1.22-.17-.5-.03-.49-.04.04-.02.96,0,1.9.16,2.84.33,4.47.84,8.82-3.83,9.61-7.87.85-4.28-.69-8.88-5.41-9.77-6.61-1.24-12.84.74-18.32,4.39-.56.38-1.08.86-1.55,1.41-2.48,1.01-4.63,3.29-5.29,6.87-3.05,16.48-5.6,34.91-2.9,51.62,1.14,7.03,5.05,13.3,12.11,15.47,7.72,2.37,16.42.13,23.63-2.91,8.86-3.74,6.92-20.77-3.76-16.27Z"/>
    <path class="cls-1" d="M453.44,5.65c-1.52-1.14-3.04-2.28-4.55-3.42-.72-.78-1.58-1.26-2.59-1.45-.95-.39-1.93-.47-2.96-.23-2.04.34-4.25,1.78-5.47,3.43-1.41,1.9-2.5,4.27-2.43,6.68.06,1.92.49,4.5,2.14,5.74,1.52,1.14,3.04,2.28,4.55,3.42.72.78,1.58,1.26,2.59,1.45.95.39,1.93.47,2.96.23,2.04-.34,4.25-1.78,5.47-3.43,1.41-1.9,2.5-4.27,2.43-6.68-.06-1.92-.49-4.5-2.14-5.74Z"/>
  </g>
  <path class="cls-1" d="M161.69,91.1c-2.76-1.31-3.67-5.79-4.54-8.48-1.5-4.6-2.59-9.37-3.27-14.16-1.29-8.99-.77-18.14,1.11-27,2.9-13.71-15-14.7-17.64-2.23-2.73,12.91-3.14,26.01-.99,39.03-2.41,1.84-4.14,4.8-5.02,7.52-1.01,3.14-2.35,7.74-5.82,3.86-2.82-3.16-2.54-8.92-2.7-12.83-.47-11.6.77-22.97,3.52-34.24,1.18-4.83-.98-10.63-6.35-11.47-5.45-.85-10.12,4.46-11.29,9.24-2.61,10.67-4.14,21.66-4.29,32.65-.13,9.15-.28,20.26,4.34,28.49,4.28,7.64,12.52,12.24,21.21,9.81,5.88-1.64,10.02-5.46,13.1-10.17,2.23,4.04,5.18,7.42,9.18,9.32,10.4,4.95,19.86-14.41,9.45-19.37Z"/>
  <path class="cls-1" d="M214.64,64.52c-.94-11.37-3.65-23.52-13.47-30.54-6.91-4.94-15.1-5.13-21.96-1.61-4.55-4.48-14.29.03-13.65,8.23,1.5,19.2,2.35,38.44,2.57,57.69-1.56,3.29-1.68,7.08.57,9.4,1.47,4.26,5.86,4.84,9.58,3.01,9.6.33,17.99-5.89,24.9-13.01,8.96-9.25,12.53-20.41,11.47-33.17ZM194.55,84.3c-2.49,2.88-6.4,7.03-10.59,8.22-.21-14.32-.78-28.63-1.7-42.92.27-.25.53-.53.8-.83,2.75-3.12,8.48.74,10.37,2.88,4.15,4.71,5.09,11.52,5.47,17.57.38,6.05-.35,10.45-4.35,15.08Z"/>
  <path class="cls-1" d="M258.39,32.39c-.78-4.5-5.66-6.4-9.57-4.67-4.45,1.96-6.55,7.26-5.77,11.82,1.66,9.64,2.51,19.39,2.61,29.14-.22.51-.41,1.01-.57,1.51-1.5,4.79-3.5,9.38-5.89,13.79-1.07,1.98-2.22,3.89-3.49,5.75-.01.02-.02.03-.04.05-.42-2.55-.68-5.1-.86-7.68-.33-4.87-.46-9.76-.66-14.65-.41-10.37-.82-20.73-1.23-31.1-.48-12.09-16.21-7.55-15.81,2.73l1.35,34.21c.41,10.3-.57,24.35,4.9,33.53,2.47,4.13,7.1,6.1,11.73,4.61,2.79-.9,5.04-2.76,6.99-4.94-2.16,10.72-5.27,21.25-9.37,31.42-1.6,3.97-1.73,9.43,2.69,11.66,4.05,2.04,9.29-1.19,10.85-5.06,14.37-35.66,18.65-74.23,12.12-112.14Z"/>
</svg>