<svg width="107" height="159" viewBox="0 0 107 159" fill="none" xmlns="http://www.w3.org/2000/svg">
<path d="M95.7704 102.628H84.4095V100.019H95.7704V102.628Z" fill="black" style="fill:black;fill-opacity:1;"/>
<path d="M72.3686 106.715C72.3686 107.909 72.442 109.271 72.5889 110.801C71.2251 110.738 68.9278 110.707 65.6968 110.707C61.3748 110.707 58.1229 110.738 55.9409 110.801V110.172C56.6542 110.13 57.1683 110.047 57.483 109.921C57.7977 109.795 58.0075 109.554 58.1124 109.198C58.2383 108.842 58.3012 108.265 58.3012 107.469V95.0212C58.3012 94.2248 58.2383 93.6485 58.1124 93.2923C58.0075 92.936 57.7872 92.695 57.4515 92.5693C57.1368 92.4436 56.6333 92.3597 55.9409 92.3178V91.6892C58.1229 91.752 61.3748 91.7835 65.6968 91.7835C68.6341 91.7835 70.7216 91.752 71.9594 91.6892C71.8126 93.0932 71.7392 94.3506 71.7392 95.4612C71.7392 96.2785 71.7706 96.9282 71.8336 97.4102H71.1097C70.795 95.6079 70.2495 94.3296 69.4733 93.5752C68.697 92.7998 67.627 92.4121 66.2633 92.4121H65.0989C64.5534 92.4121 64.1442 92.4645 63.8715 92.5693C63.5988 92.6531 63.3994 92.8417 63.2736 93.1351C63.1687 93.4075 63.1162 93.8476 63.1162 94.4554V100.868H64.5953C65.5604 100.868 66.2842 100.533 66.7668 99.862C67.2703 99.1705 67.606 98.3741 67.7739 97.473H68.4977C68.4347 98.1855 68.4033 99.0028 68.4033 99.9249V101.182C68.4033 102.125 68.4662 103.362 68.5921 104.891H67.8683C67.7214 103.907 67.3857 103.1 66.8612 102.471C66.3577 101.821 65.6024 101.497 64.5953 101.497H63.1162V108.035C63.1162 108.643 63.1687 109.093 63.2736 109.387C63.3994 109.659 63.5988 109.848 63.8715 109.952C64.1442 110.036 64.5534 110.078 65.0989 110.078H66.4521C67.9417 110.078 69.1061 109.648 69.9453 108.789C70.8055 107.93 71.4035 106.484 71.7392 104.451H72.463C72.4 105.038 72.3686 105.793 72.3686 106.715Z" fill="black" style="fill:black;fill-opacity:1;"/>
<path d="M45.3009 92.3178C44.5876 92.3597 44.0735 92.4436 43.7588 92.5693C43.4441 92.695 43.2238 92.936 43.098 93.2923C42.9931 93.6485 42.9406 94.2248 42.9406 95.0212V107.469C42.9406 108.265 42.9931 108.842 43.098 109.198C43.2238 109.554 43.4441 109.795 43.7588 109.921C44.0735 110.047 44.5876 110.13 45.3009 110.172V110.801C44.2309 110.738 42.6784 110.707 40.6433 110.707C38.4403 110.707 36.8143 110.738 35.7653 110.801V110.172C36.4786 110.13 36.9927 110.047 37.3074 109.921C37.6221 109.795 37.8319 109.554 37.9368 109.198C38.0627 108.842 38.1256 108.265 38.1256 107.469V95.0212C38.1256 94.2248 38.0627 93.6485 37.9368 93.2923C37.8319 92.936 37.6116 92.695 37.2759 92.5693C36.9612 92.4436 36.4577 92.3597 35.7653 92.3178V91.6892C36.7934 91.752 38.4193 91.7835 40.6433 91.7835C42.6784 91.7835 44.2309 91.752 45.3009 91.6892V92.3178Z" fill="black" style="fill:black;fill-opacity:1;"/>
<path d="M17.9426 89.1744C17.1873 89.2163 16.6314 89.3002 16.2747 89.4259C15.939 89.5516 15.7082 89.7926 15.5823 90.1489C15.4565 90.5051 15.3935 91.0814 15.3935 91.8778V107.846C15.3935 108.517 15.446 109.009 15.5509 109.324C15.6558 109.617 15.8341 109.816 16.0859 109.921C16.3586 110.026 16.7887 110.078 17.3762 110.078H18.9182C20.3449 110.078 21.5722 109.439 22.6003 108.161C23.6493 106.882 24.3312 105.185 24.6459 103.068H25.3697C25.3068 103.781 25.2753 104.703 25.2753 105.834C25.2753 107.846 25.3487 109.502 25.4956 110.801C24.0689 110.738 21.6667 110.707 18.2888 110.707C13.7151 110.707 10.2953 110.738 8.0294 110.801V110.172C8.72175 110.13 9.22528 110.047 9.53999 109.921C9.87567 109.795 10.096 109.554 10.2009 109.198C10.3268 108.842 10.3897 108.265 10.3897 107.469V91.8778C10.3897 91.0814 10.3268 90.5051 10.2009 90.1489C10.096 89.7926 9.87567 89.5516 9.53999 89.4259C9.22528 89.3002 8.72175 89.2163 8.0294 89.1744V88.5457C9.0994 88.6086 10.7568 88.64 13.0018 88.64C15.1418 88.64 16.7887 88.6086 17.9426 88.5457V89.1744Z" fill="black" style="fill:black;fill-opacity:1;"/>
<path d="M90.326 118.492C91.2911 118.492 92.1094 118.597 92.7807 118.806C93.4731 119.016 94.1235 119.299 94.7319 119.655C94.9627 119.781 95.162 119.886 95.3298 119.969C95.5187 120.053 95.676 120.095 95.8019 120.095C95.9907 120.095 96.1376 119.99 96.2425 119.781C96.3474 119.55 96.4313 119.194 96.4943 118.712H97.2181C97.1132 119.969 97.0607 122.149 97.0607 125.25H96.3369C96.1061 123.364 95.4977 121.887 94.5116 120.818C93.5255 119.728 92.2352 119.184 90.6407 119.184C89.5917 119.184 88.742 119.414 88.0916 119.875C87.4622 120.336 87.1475 120.933 87.1475 121.667C87.1475 122.233 87.3153 122.757 87.651 123.238C88.0077 123.7 88.4693 124.129 89.0357 124.527C89.6022 124.925 90.4309 125.449 91.5219 126.099L92.2143 126.508C93.4731 127.22 94.5011 127.87 95.2984 128.457C96.0956 129.022 96.7565 129.703 97.281 130.5C97.8055 131.275 98.0678 132.155 98.0678 133.14C98.0678 134.859 97.3545 136.179 95.9278 137.101C94.5011 138.023 92.6234 138.484 90.2945 138.484C89.2875 138.484 88.4168 138.369 87.6825 138.138C86.9482 137.929 86.2034 137.635 85.4481 137.258C84.9236 137.007 84.5564 136.881 84.3466 136.881C84.1578 136.881 84.0109 136.996 83.906 137.227C83.8011 137.436 83.7172 137.782 83.6543 138.264H82.9304C83.0144 137.09 83.0563 134.534 83.0563 130.594H83.7801C83.927 132.815 84.5249 134.565 85.574 135.844C86.644 137.122 88.1441 137.761 90.0743 137.761C91.0184 137.761 91.8366 137.52 92.529 137.038C93.2213 136.556 93.5675 135.844 93.5675 134.901C93.5675 134.062 93.2423 133.339 92.5919 132.732C91.9415 132.124 90.8296 131.359 89.256 130.437C87.2629 129.305 85.7313 128.226 84.6613 127.199C83.6123 126.172 83.0878 124.967 83.0878 123.584C83.0878 121.95 83.7592 120.692 85.1019 119.812C86.4656 118.932 88.207 118.492 90.326 118.492Z" fill="black" style="fill:black;fill-opacity:1;"/>
<path d="M76.5603 118.932C76.4135 120.525 76.34 121.95 76.34 123.207C76.34 124.381 76.3715 125.303 76.4345 125.973H75.7106C75.4169 124.381 75.0602 123.134 74.6406 122.233C74.242 121.331 73.7175 120.682 73.0671 120.284C72.4377 119.865 71.6195 119.655 70.6124 119.655H69.6368V134.398C69.6368 135.278 69.7207 135.917 69.8886 136.315C70.0564 136.713 70.3501 136.986 70.7697 137.132C71.1894 137.279 71.8712 137.373 72.8153 137.415V138.044C71.6824 137.981 69.7942 137.95 67.1506 137.95C64.4861 137.95 62.6503 137.981 61.6433 138.044V137.415C62.5874 137.373 63.2693 137.279 63.6889 137.132C64.1085 136.986 64.4022 136.713 64.57 136.315C64.7379 135.917 64.8218 135.278 64.8218 134.398V119.655H63.8462C62.8392 119.655 62.0104 119.865 61.36 120.284C60.7306 120.682 60.2061 121.331 59.7865 122.233C59.3879 123.134 59.0417 124.381 58.748 125.973H58.0242C58.0871 125.303 58.1186 124.381 58.1186 123.207C58.1186 121.95 58.0451 120.525 57.8983 118.932C59.7236 118.995 62.8077 119.026 67.1506 119.026C71.5775 119.026 74.7141 118.995 76.5603 118.932Z" fill="black" style="fill:black;fill-opacity:1;"/>
<path d="M53.7737 136.724C53.2701 137.311 52.7037 137.751 52.0742 138.044C51.4448 138.337 50.6581 138.484 49.714 138.484C48.5181 138.484 47.5949 138.254 46.9445 137.792C46.2942 137.331 45.8745 136.713 45.6857 135.938L44.7731 132.229C44.5423 131.055 44.1856 130.28 43.7031 129.903C43.2415 129.504 42.5492 129.305 41.626 129.305H40.5875V134.712C40.5875 135.508 40.6399 136.085 40.7448 136.441C40.8707 136.797 41.091 137.038 41.4057 137.164C41.7414 137.29 42.2554 137.373 42.9478 137.415V138.044C41.7519 137.981 40.042 137.95 37.8181 137.95C35.8669 137.95 34.3983 137.981 33.4122 138.044V137.415C34.1255 137.373 34.6395 137.29 34.9543 137.164C35.269 137.038 35.4788 136.797 35.5837 136.441C35.7095 136.085 35.7725 135.508 35.7725 134.712V122.264C35.7725 121.468 35.7095 120.891 35.5837 120.535C35.4788 120.179 35.269 119.938 34.9543 119.812C34.6395 119.686 34.1255 119.603 33.4122 119.561V118.932C34.3983 118.995 35.804 119.026 37.6292 119.026L41.2169 118.995C41.6365 118.974 42.1086 118.963 42.6331 118.963C45.4444 118.963 47.5425 119.393 48.9272 120.252C50.3329 121.091 51.0357 122.264 51.0357 123.773C51.0357 125.072 50.4797 126.214 49.3678 127.199C48.2558 128.184 46.3991 128.813 43.7975 129.085C44.0912 129.085 44.3954 129.117 44.7101 129.18C46.2207 129.347 47.4061 129.682 48.2663 130.185C49.1475 130.688 49.7244 131.485 49.9972 132.574L50.6581 135.372C50.8049 135.959 50.9833 136.378 51.1931 136.629C51.4029 136.881 51.6651 137.007 51.9798 137.007C52.4204 137.007 52.8715 136.776 53.3331 136.315L53.7737 136.724ZM42.224 119.561C41.7624 119.561 41.4162 119.634 41.1854 119.781C40.9546 119.927 40.7973 120.189 40.7134 120.567C40.6294 120.944 40.5875 121.51 40.5875 122.264V128.677H41.9407C43.4933 128.677 44.5528 128.278 45.1193 127.482C45.7067 126.686 46.0004 125.565 46.0004 124.119C46.0004 122.589 45.7067 121.447 45.1193 120.692C44.5528 119.938 43.5877 119.561 42.224 119.561Z" fill="black" style="fill:black;fill-opacity:1;"/>
<path d="M26.8036 135.403C27.0764 136.095 27.3911 136.598 27.7477 136.912C28.1044 137.227 28.4506 137.394 28.7863 137.415V138.044C27.5274 137.981 25.9329 137.95 24.0027 137.95C21.8627 137.95 20.2682 137.981 19.2192 138.044V137.415C20.0165 137.373 20.5829 137.279 20.9186 137.132C21.2543 136.965 21.4221 136.682 21.4221 136.284C21.4221 135.906 21.2963 135.403 21.0445 134.775L19.1563 129.62H12.2957L11.4774 131.789C10.89 133.297 10.5963 134.46 10.5963 135.278C10.5963 136.053 10.827 136.598 11.2886 136.912C11.7712 137.206 12.474 137.373 13.3971 137.415V138.044C11.9705 137.981 10.6697 137.95 9.49479 137.95C8.52969 137.95 7.73243 137.981 7.10302 138.044V137.415C8.13106 137.227 9.03322 136.126 9.80949 134.115L16.9848 115.726C17.2156 115.747 17.5827 115.757 18.0863 115.757C18.5898 115.757 18.9465 115.747 19.1563 115.726L26.8036 135.403ZM18.936 128.991L15.8204 120.504L12.5474 128.991H18.936Z" fill="black" style="fill:black;fill-opacity:1;"/>
<path fill-rule="evenodd" clip-rule="evenodd" d="M48.9619 1.93144C51.7263 0.156361 55.2737 0.156356 58.0381 1.93144L101.048 29.5485C103.45 31.0909 104.902 33.7474 104.902 36.5996V75.5874C104.902 80.2169 101.145 83.9698 96.5098 83.9698H10.4902C5.85535 83.9698 2.09805 80.2169 2.09805 75.5874V36.5996C2.09805 33.7474 3.55006 31.0909 5.95209 29.5485L48.9619 1.93144ZM96.5098 36.5996L53.5 8.98255L10.4902 36.5996V75.5874H96.5098V36.5996Z" fill="black" style="fill:black;fill-opacity:1;"/>
<path fill-rule="evenodd" clip-rule="evenodd" d="M49.3039 43.5733V4H57.6961V43.5733H49.3039Z" fill="black" style="fill:black;fill-opacity:1;"/>
<path fill-rule="evenodd" clip-rule="evenodd" d="M53.5 57.9244C56.3141 57.9244 58.5953 55.6459 58.5953 52.8351C58.5953 50.0243 56.3141 47.7458 53.5 47.7458C50.686 47.7458 48.4048 50.0243 48.4048 52.8351C48.4048 55.6459 50.686 57.9244 53.5 57.9244ZM53.5 66.3069C60.9489 66.3069 66.9874 60.2753 66.9874 52.8351C66.9874 45.3949 60.9489 39.3634 53.5 39.3634C46.0511 39.3634 40.0126 45.3949 40.0126 52.8351C40.0126 60.2753 46.0511 66.3069 53.5 66.3069Z" fill="black" style="fill:black;fill-opacity:1;"/>
</svg>
